<svg width="44" height="47" viewBox="0 0 44 47" fill="none" xmlns="http://www.w3.org/2000/svg">
<rect x="8" y="23" width="28" height="24" rx="4" fill="#2E2E32"/>
<rect x="0.5" y="0.5" width="43" height="43" rx="9.5" fill="url(#paint0_linear_5459_18073)"/>
<rect x="0.5" y="0.5" width="43" height="43" rx="9.5" stroke="#1E1E21"/>
<path d="M17.8267 24.6673C17.9 24.3407 17.7667 23.874 17.5333 23.6407L15.9133 22.0207C15.4067 21.514 15.2067 20.974 15.3533 20.5073C15.5067 20.0407 15.98 19.7207 16.6867 19.6007L18.7667 19.254C19.0667 19.2007 19.4333 18.934 19.5733 18.6607L20.72 16.3607C21.0533 15.7007 21.5067 15.334 22 15.334C22.4933 15.334 22.9467 15.7007 23.28 16.3607L24.4267 18.6607C24.5133 18.834 24.6933 19.0007 24.8867 19.114L17.7067 26.294C17.6133 26.3873 17.4533 26.3007 17.48 26.1673L17.8267 24.6673Z" fill="white"/>
<path d="M26.4667 23.6393C26.2267 23.8793 26.0934 24.3393 26.1734 24.6659L26.6334 26.6726C26.8267 27.5059 26.7067 28.1326 26.2934 28.4326C26.1267 28.5526 25.9267 28.6126 25.6934 28.6126C25.3534 28.6126 24.9534 28.4859 24.5134 28.2259L22.56 27.0659C22.2534 26.8859 21.7467 26.8859 21.44 27.0659L19.4867 28.2259C18.7467 28.6593 18.1134 28.7326 17.7067 28.4326C17.5534 28.3193 17.44 28.1659 17.3667 27.9659L25.4734 19.8593C25.78 19.5526 26.2134 19.4126 26.6334 19.4859L27.3067 19.5993C28.0134 19.7193 28.4867 20.0393 28.64 20.5059C28.7867 20.9726 28.5867 21.5126 28.08 22.0193L26.4667 23.6393Z" fill="white"/>
<defs>
<linearGradient id="paint0_linear_5459_18073" x1="22" y1="0" x2="22" y2="44" gradientUnits="userSpaceOnUse">
<stop stop-color="#FF007F"/>
<stop offset="1" stop-color="#99004C"/>
</linearGradient>
</defs>
</svg>
